<mxfile host="app.diagrams.net" modified="2023-04-11T08:49:42.526Z" agent="Mozilla/5.0 (Windows NT 10.0; Win64; x64) AppleWebKit/537.36 (KHTML, like Gecko) Chrome/112.0.0.0 Safari/537.36 Edg/112.0.1722.34" etag="UuEXHWbepyFIxmUIBLAI" version="21.1.5" type="device">
  <diagram name="第 1 页" id="d-2SekT0oWRrDAiHW0gk">
    <mxGraphModel dx="821" dy="674" grid="1" gridSize="10" guides="1" tooltips="1" connect="1" arrows="1" fold="1" page="1" pageScale="1" pageWidth="827" pageHeight="1169" math="0" shadow="0">
      <root>
        <mxCell id="0" />
        <mxCell id="1" parent="0" />
        <mxCell id="HE3qIyfIJsHKENY5e4zm-1" value="Elevator" style="swimlane;fontStyle=1;align=center;verticalAlign=top;childLayout=stackLayout;horizontal=1;startSize=26;horizontalStack=0;resizeParent=1;resizeParentMax=0;resizeLast=0;collapsible=1;marginBottom=0;whiteSpace=wrap;html=1;" parent="1" vertex="1">
          <mxGeometry x="210" y="120" width="230" height="180" as="geometry" />
        </mxCell>
        <mxCell id="HE3qIyfIJsHKENY5e4zm-2" value="-&amp;nbsp;totalFloor&lt;span style=&quot;background-color: initial;&quot;&gt;: int&lt;/span&gt;&lt;br&gt;-&amp;nbsp;currentFloor: int&lt;br&gt;- isUp: bool&lt;br&gt;- isDown: bool" style="text;strokeColor=none;fillColor=default;align=left;verticalAlign=top;spacingLeft=4;spacingRight=4;overflow=hidden;rotatable=0;points=[[0,0.5],[1,0.5]];portConstraint=eastwest;whiteSpace=wrap;html=1;" parent="HE3qIyfIJsHKENY5e4zm-1" vertex="1">
          <mxGeometry y="26" width="230" height="64" as="geometry" />
        </mxCell>
        <mxCell id="HE3qIyfIJsHKENY5e4zm-3" value="" style="line;strokeWidth=1;fillColor=default;align=left;verticalAlign=middle;spacingTop=-1;spacingLeft=3;spacingRight=3;rotatable=0;labelPosition=right;points=[];portConstraint=eastwest;strokeColor=inherit;labelBorderColor=none;" parent="HE3qIyfIJsHKENY5e4zm-1" vertex="1">
          <mxGeometry y="90" width="230" height="8" as="geometry" />
        </mxCell>
        <mxCell id="HE3qIyfIJsHKENY5e4zm-4" value="+ Elevator(int)&lt;br&gt;+ setUpButton(): void&lt;br&gt;+ setDownButton(): void&lt;br&gt;+ setFloorNumber(): void&lt;br&gt;+ getCurrentFloor(): int" style="text;strokeColor=none;fillColor=default;align=left;verticalAlign=top;spacingLeft=4;spacingRight=4;overflow=hidden;rotatable=0;points=[[0,0.5],[1,0.5]];portConstraint=eastwest;whiteSpace=wrap;html=1;" parent="HE3qIyfIJsHKENY5e4zm-1" vertex="1">
          <mxGeometry y="98" width="230" height="82" as="geometry" />
        </mxCell>
      </root>
    </mxGraphModel>
  </diagram>
</mxfile>
